<svg xmlns="http://www.w3.org/2000/svg" width="561" height="561" fill="none" viewBox="0 0 561 561">
  <circle cx="231.846" cy="266.297" r="162.297" fill="#D4E2FF"/>
  <path fill="#D4E2FF" d="M115.451 449.827c-3.518 1.563-7.408-1.268-7.003-5.095l7.319-69.127c.405-3.828 4.802-5.782 7.914-3.517l56.207 40.902c3.112 2.265 2.605 7.049-.912 8.612l-63.525 28.225z"/>
  <g>
    <circle cx="349.149" cy="267.149" r="163.149" fill="#74BCF0"/>
    <path fill="#74BCF0" d="M483.362 432.025c.409 3.827-3.478 6.662-6.997 5.103l-63.973-28.34c-3.519-1.559-4.031-6.343-.921-8.612l56.53-41.231c3.11-2.268 7.509-.32 7.918 3.507l7.443 69.573z"/>
  </g>
  <g>
    <path fill="#F5F9FC" d="M302.133 297.137a46.138 46.138 0 0078.666 32.85 46.13 46.13 0 0013.607-32.584l-46.136-.133-46.137-.133z"/>
    <circle cx="405" cy="238" r="31" fill="#F5F9FC"/>
    <circle cx="292" cy="238" r="31" fill="#F5F9FC"/>
  </g>
</svg>
